<?xml version="1.0" encoding="UTF-8"?>
<svg xmlns="http://www.w3.org/2000/svg" xmlns:xlink="http://www.w3.org/1999/xlink" width="64px" height="64px" viewBox="0 0 64 64" version="1.1">
<g id="surface1">
<path style=" stroke:none;fill-rule:nonzero;fill:rgb(0%,0%,0%);fill-opacity:1;" d="M 14.511719 4.199219 C 12.398438 4.761719 10.75 6.449219 10.1875 8.585938 C 9.898438 9.664062 9.898438 54.335938 10.1875 55.414062 C 10.75 57.574219 12.414062 59.25 14.5625 59.8125 C 15.210938 59.976562 17.414062 60 32 60 C 50.375 60 49.375 60.039062 50.886719 59.238281 C 51.761719 58.761719 52.851562 57.664062 53.300781 56.773438 C 54.039062 55.324219 54 56.351562 54 36.238281 C 54 22.4375 53.960938 17.675781 53.851562 17.363281 C 53.726562 16.988281 45.238281 5.648438 44.386719 4.699219 C 43.710938 3.960938 44.488281 4 29.226562 4.011719 C 17.375 4.011719 15.085938 4.050781 14.511719 4.199219 Z M 40.023438 12.523438 C 40.0625 16.949219 40.074219 17.074219 40.351562 17.625 C 40.789062 18.523438 41.289062 19.050781 42.148438 19.511719 L 42.9375 19.9375 L 46.476562 19.976562 L 50 20.011719 L 49.976562 37.375 C 49.9375 54.6875 49.9375 54.738281 49.675781 55.074219 C 49.539062 55.261719 49.261719 55.539062 49.074219 55.675781 C 48.738281 55.9375 48.699219 55.9375 32 55.9375 C 15.300781 55.9375 15.261719 55.9375 14.925781 55.675781 C 14.738281 55.539062 14.460938 55.261719 14.324219 55.074219 L 14.0625 54.738281 L 14.023438 32.335938 C 14.011719 20.011719 14.023438 9.761719 14.0625 9.539062 C 14.148438 9.039062 14.675781 8.398438 15.1875 8.175781 C 15.488281 8.039062 17.898438 8.011719 27.773438 8 L 39.988281 8 Z M 44.773438 11.773438 C 45.164062 12.273438 46.039062 13.4375 46.738281 14.335938 L 48.011719 16 L 44 16 L 44 13.4375 C 44 12.023438 44.023438 10.875 44.050781 10.875 C 44.074219 10.875 44.398438 11.289062 44.773438 11.773438 Z M 44.773438 11.773438 "/>
</g>
</svg>
