<?xml version="1.0" standalone="no"?>
<!DOCTYPE svg PUBLIC "-//W3C//DTD SVG 20010904//EN"
 "http://www.w3.org/TR/2001/REC-SVG-20010904/DTD/svg10.dtd">
<svg version="1.0" xmlns="http://www.w3.org/2000/svg"
 width="512.000000pt" height="512.000000pt" viewBox="0 0 512.000000 512.000000"
 preserveAspectRatio="xMidYMid meet">

<g transform="translate(0.000000,512.000000) scale(0.100000,-0.100000)"
fill="#000000" stroke="none">
<path d="M1161 4784 c-169 -45 -301 -180 -346 -351 -23 -86 -23 -3660 0 -3746
45 -173 178 -307 350 -352 52 -13 228 -15 1395 -15 1470 0 1390 -3 1511 61 70
38 157 126 193 197 59 116 56 34 56 1643 0 1104 -3 1485 -12 1510 -10 30 -689
937 -757 1013 -54 59 8 56 -1213 55 -948 0 -1131 -3 -1177 -15z m2041 -666 c3
-354 4 -364 26 -408 35 -72 75 -114 144 -151 l63 -34 283 -3 282 -3 -2 -1389
c-3 -1385 -3 -1389 -24 -1416 -11 -15 -33 -37 -48 -48 -27 -21 -30 -21 -1366
-21 -1336 0 -1339 0 -1366 21 -15 11 -37 33 -48 48 l-21 27 -3 1792 c-1 986 0
1806 3 1824 7 40 49 91 90 109 24 11 217 13 1007 14 l977 0 3 -362z m380 60
c31 -40 101 -133 157 -205 l102 -133 -161 0 -160 0 0 205 c0 113 2 205 4 205
2 0 28 -33 58 -72z"/>
</g>
</svg>
